<?xml version="1.0" encoding="utf-8"?>
<!-- Generator: Adobe Illustrator 19.1.0, SVG Export Plug-In . SVG Version: 6.00 Build 0)  -->
<svg version="1.1" xmlns="http://www.w3.org/2000/svg" xmlns:xlink="http://www.w3.org/1999/xlink" x="0px" y="0px"
	 viewBox="0 0 183.444 50.723" enable-background="new 0 0 183.444 50.723" xml:space="preserve">
<symbol  id="New_Symbol_4" viewBox="-37.851 -43.641 75.701 87.281">
	<path fill="none" stroke="#5AC878" stroke-width="3.5" stroke-linecap="round" stroke-linejoin="round" stroke-miterlimit="10" d="
		M-34.558,22.1l32.978,19.361c0.976,0.573,2.186,0.573,3.162,0L34.559,22.1c0.955-0.561,1.542-1.585,1.542-2.693v-38.813
		c0-1.108-0.587-2.132-1.542-2.693L1.581-41.46c-0.976-0.573-2.186-0.573-3.162,0l-32.978,19.361
		c-0.955,0.561-1.542,1.585-1.542,2.693v38.813C-36.1,20.515-35.514,21.539-34.558,22.1z"/>
	
		<line fill="none" stroke="#5AC878" stroke-width="3.5" stroke-linecap="round" stroke-linejoin="round" stroke-miterlimit="10" x1="-35.008" y1="20.554" x2="-0.013" y2="0"/>
	
		<line fill="none" stroke="#5AC878" stroke-width="3.5" stroke-linecap="round" stroke-linejoin="round" stroke-miterlimit="10" x1="35.009" y1="20.554" x2="-0.013" y2="0"/>
	<g>
		<path fill="#5AC878" d="M30.807-19.832c-0.47,0-0.92,0.19-1.239,0.51c-0.33,0.33-0.511,0.78-0.511,1.24s0.181,0.91,0.511,1.24
			c0.64,0.65,1.83,0.65,2.47,0c0.33-0.33,0.52-0.78,0.52-1.24s-0.189-0.91-0.52-1.24C31.717-19.642,31.267-19.832,30.807-19.832z"/>
		<path fill="#5AC878" d="M23.757-15.972c-0.84,0.48-1.12,1.56-0.63,2.39l0,0c0.49,0.84,1.561,1.11,2.4,0.63l0,0
			c0.83-0.49,1.109-1.57,0.62-2.4l0,0c-0.32-0.56-0.91-0.86-1.511-0.86l0,0C24.337-16.212,24.027-16.142,23.757-15.972z
			 M17.587-12.362c-0.83,0.49-1.109,1.57-0.62,2.4l0,0c0.49,0.83,1.561,1.11,2.4,0.62l0,0c0.83-0.49,1.11-1.56,0.62-2.39l0,0
			c-0.33-0.56-0.91-0.87-1.51-0.87l0,0C18.177-12.602,17.867-12.522,17.587-12.362z M11.427-8.742c-0.83,0.49-1.109,1.56-0.62,2.4
			l0,0c0.49,0.83,1.561,1.11,2.391,0.62l0,0c0.83-0.49,1.109-1.56,0.63-2.4l0,0c-0.33-0.55-0.91-0.86-1.51-0.86l0,0
			C12.007-8.982,11.707-8.902,11.427-8.742z M5.267-5.122c-0.84,0.49-1.119,1.56-0.63,2.39l0,0c0.49,0.84,1.57,1.11,2.4,0.63l0,0
			c0.83-0.49,1.11-1.57,0.62-2.4l0,0c-0.32-0.56-0.91-0.86-1.51-0.86l0,0C5.847-5.362,5.547-5.292,5.267-5.122z"/>
		<path fill="#5AC878" d="M-0.013-1.752c-0.46,0-0.91,0.19-1.24,0.52c-0.32,0.32-0.51,0.77-0.51,1.23s0.189,0.91,0.51,1.24
			c0.66,0.65,1.83,0.65,2.48,0c0.319-0.33,0.51-0.78,0.51-1.24s-0.19-0.91-0.51-1.23C0.907-1.562,0.457-1.752-0.013-1.752z"/>
	</g>
	<g>
		<path fill="#5AC878" d="M-30.803-19.832c-0.46,0-0.91,0.19-1.23,0.51c-0.33,0.33-0.52,0.78-0.52,1.24s0.189,0.91,0.52,1.24
			c0.641,0.65,1.82,0.65,2.471,0c0.329-0.33,0.51-0.78,0.51-1.24s-0.181-0.91-0.51-1.24C-29.893-19.642-30.343-19.832-30.803-19.832
			z"/>
		<path fill="#5AC878" d="M-26.153-15.352c-0.489,0.83-0.21,1.9,0.62,2.39l0,0c0.84,0.49,1.91,0.22,2.4-0.62l0,0
			c0.49-0.83,0.21-1.9-0.62-2.39l0,0c-0.28-0.17-0.59-0.25-0.89-0.25l0,0C-25.243-16.212-25.823-15.912-26.153-15.352z
			 M-19.993-11.732c-0.49,0.83-0.21,1.9,0.62,2.39l0,0c0.83,0.49,1.91,0.21,2.4-0.62l0,0c0.489-0.84,0.21-1.91-0.63-2.4l0,0
			c-0.271-0.16-0.58-0.24-0.881-0.24l0,0C-19.083-12.602-19.673-12.292-19.993-11.732z M-13.833-8.122
			c-0.49,0.84-0.21,1.91,0.62,2.4l0,0c0.83,0.49,1.9,0.21,2.4-0.62l0,0c0.479-0.84,0.199-1.91-0.631-2.4l0,0
			c-0.279-0.16-0.579-0.24-0.88-0.24l0,0C-12.923-8.982-13.513-8.672-13.833-8.122z M-7.683-4.502c-0.48,0.83-0.21,1.91,0.63,2.39
			l0,0c0.83,0.49,1.899,0.21,2.39-0.62l0,0c0.49-0.83,0.21-1.9-0.62-2.39l0,0c-0.279-0.17-0.58-0.24-0.88-0.24l0,0
			C-6.763-5.362-7.353-5.052-7.683-4.502z"/>
		<path fill="#5AC878" d="M-0.013-1.752c-0.46,0-0.91,0.19-1.24,0.52c-0.32,0.32-0.51,0.77-0.51,1.23s0.189,0.91,0.51,1.24
			c0.66,0.65,1.83,0.65,2.48,0c0.319-0.33,0.51-0.78,0.51-1.24s-0.19-0.91-0.51-1.23C0.907-1.562,0.457-1.752-0.013-1.752z"/>
	</g>
	<g>
		<path fill="#5AC878" d="M-0.013-1.752c-0.46,0-0.91,0.19-1.24,0.52c-0.32,0.32-0.51,0.77-0.51,1.23s0.189,0.92,0.51,1.24
			c0.65,0.65,1.83,0.65,2.48,0c0.319-0.32,0.51-0.78,0.51-1.24s-0.19-0.91-0.51-1.23C0.897-1.562,0.447-1.752-0.013-1.752z"/>
		<path fill="#5AC878" d="M-1.763,7.068c0,0.96,0.79,1.75,1.75,1.75l0,0c0.97,0,1.75-0.79,1.75-1.76l0,0c0-0.96-0.78-1.74-1.75-1.74
			l0,0C-0.973,5.318-1.763,6.098-1.763,7.068z M-1.753,14.128c0,0.97,0.78,1.75,1.74,1.75l0,0c0.97,0,1.76-0.78,1.75-1.75l0,0
			c0-0.97-0.78-1.75-1.75-1.75l0,0C-0.973,12.378-1.763,13.158-1.753,14.128z M-1.753,21.198c0,0.96,0.78,1.74,1.75,1.74l0,0
			c0.96,0,1.75-0.78,1.75-1.75l0,0c0-0.96-0.79-1.75-1.75-1.75l0,0C-0.973,19.438-1.753,20.228-1.753,21.198z M-1.753,28.258
			c0,0.96,0.78,1.75,1.75,1.75l0,0c0.97,0,1.75-0.79,1.75-1.75l0,0c0-0.97-0.78-1.75-1.75-1.75l0,0
			C-0.973,26.508-1.753,27.288-1.753,28.258z"/>
		<path fill="#5AC878" d="M-0.003,33.568c-0.46,0-0.91,0.19-1.24,0.51c-0.319,0.33-0.51,0.78-0.51,1.24s0.19,0.91,0.51,1.24
			c0.66,0.65,1.83,0.65,2.48,0c0.33-0.33,0.51-0.78,0.51-1.24s-0.18-0.91-0.51-1.24C0.907,33.758,0.457,33.568-0.003,33.568z"/>
	</g>
	
		<line fill="none" stroke="#5AC878" stroke-width="3.5" stroke-linecap="round" stroke-linejoin="round" stroke-miterlimit="10" x1="0" y1="-41.106" x2="-0.013" y2="0"/>
</symbol>
<g id="bg">
</g>
<g id="main">
	<g id="New_Symbol_1_2_">
	</g>
	<g id="New_Symbol_7_">
		<g id="New_Symbol_2">
			<g id="New_Symbol_3_1_">
			</g>
			<g id="New_Symbol_3">
			</g>
		</g>
	</g>
	<g id="New_Symbol_4_">
	</g>
	<g id="New_Symbol_3_">
	</g>
	<g id="New_Symbol_5_">
	</g>
	<g id="New_Symbol_6_">
	</g>
	<g id="New_Symbol_1_1_">
	</g>
	<g id="New_Symbol_1">
	</g>
	<g id="New_Symbol_2_">
	</g>
	<g id="New_Symbol_1_">
	</g>
	<g id="New_Symbol">
	</g>
	<g>
		<g>
			<path fill="#536567" d="M75.131,35.364c-0.589,0-1.157-0.281-1.512-0.78l-9.415-13.219v12.143c0,1.025-0.831,1.856-1.856,1.856
				s-1.856-0.831-1.856-1.856V15.56c0-0.807,0.522-1.522,1.291-1.768s1.608,0.034,2.077,0.691l9.415,13.219V15.56
				c0-1.025,0.831-1.856,1.856-1.856c1.025,0,1.856,0.831,1.856,1.856v17.948c0,0.807-0.522,1.522-1.291,1.768
				C75.509,35.336,75.319,35.364,75.131,35.364z"/>
			<path fill="#5AC878" d="M88.691,46.82c-0.577,0-1.044-0.467-1.044-1.044V4.947c0-0.577,0.467-1.044,1.044-1.044
				c0.577,0,1.044,0.467,1.044,1.044v40.829C89.734,46.353,89.267,46.82,88.691,46.82z"/>
			<g>
				<path fill="#536567" d="M113.698,17.566c0,0-0.164-0.109-0.47-0.312c-0.282-0.184-0.739-0.45-1.316-0.734
					c-0.58-0.284-1.308-0.575-2.172-0.756c-0.865-0.193-1.852-0.233-2.954-0.116c-1.051,0.123-2.196,0.475-3.034,1.189
					c-0.842,0.718-1.31,1.741-1.129,3.039c0.072,0.496,0.289,1.066,0.678,1.486c0.394,0.436,0.95,0.806,1.587,1.102
					c0.638,0.297,1.351,0.526,2.087,0.716c0.368,0.096,0.745,0.177,1.124,0.255c0.436,0.099,0.777,0.155,1.219,0.276
					c0.848,0.21,1.652,0.472,2.46,0.827c0.8,0.354,1.589,0.796,2.295,1.408c0.703,0.605,1.317,1.417,1.628,2.361
					c0.074,0.234,0.126,0.476,0.177,0.714c0.024,0.24,0.061,0.482,0.064,0.719l-0.008,0.353l-0.006,0.176l-0.002,0.044l-0.011,0.099
					l-0.01,0.071l-0.041,0.282c-0.01,0.087-0.027,0.188-0.065,0.324c-0.455,1.969-1.948,3.225-3.377,3.863
					c-1.452,0.659-2.907,0.843-4.215,0.862c-0.413-0.007-0.587-0.007-0.972-0.051c-0.351-0.032-0.66-0.09-0.958-0.148
					c-0.595-0.132-1.149-0.288-1.646-0.482c-1.003-0.37-1.807-0.816-2.45-1.207c-0.639-0.399-1.107-0.762-1.424-1.018
					c-0.316-0.255-0.479-0.409-0.479-0.409l-0.026-0.025c-0.366-0.346-0.381-0.924-0.035-1.289c0.337-0.356,0.894-0.379,1.26-0.061
					c0,0,0.136,0.118,0.418,0.325c0.28,0.208,0.708,0.502,1.278,0.833c0.568,0.331,1.28,0.707,2.13,1.002
					c0.423,0.157,0.882,0.274,1.364,0.373c0.244,0.043,0.492,0.083,0.719,0.1c0.189,0.03,0.611,0.03,0.801,0.031
					c1.103-0.012,2.308-0.182,3.389-0.678c0.538-0.245,1.038-0.572,1.43-0.985c0.097-0.104,0.198-0.206,0.273-0.324
					c0.089-0.111,0.166-0.228,0.229-0.353c0.145-0.237,0.24-0.529,0.299-0.743c0.314-1.266-0.059-2.361-1.069-3.228
					c-0.998-0.859-2.45-1.431-3.898-1.793c-0.336-0.097-0.791-0.178-1.141-0.259c-0.41-0.085-0.82-0.173-1.23-0.28
					c-0.819-0.212-1.639-0.471-2.442-0.843c-0.798-0.373-1.594-0.871-2.246-1.594c-0.316-0.367-0.6-0.779-0.792-1.231
					c-0.212-0.449-0.316-0.902-0.388-1.42c-0.038-0.26-0.027-0.397-0.043-0.6c-0.006-0.307,0.018-0.478,0.029-0.721
					c0.031-0.226,0.071-0.452,0.116-0.674c0.067-0.219,0.121-0.441,0.206-0.651c0.329-0.85,0.887-1.576,1.525-2.115
					c1.299-1.086,2.791-1.496,4.121-1.66c1.304-0.154,2.561-0.063,3.613,0.195c1.058,0.247,1.927,0.619,2.606,0.969
					c0.686,0.349,1.162,0.69,1.505,0.931c0.312,0.232,0.478,0.356,0.478,0.356c0.404,0.301,0.488,0.873,0.187,1.277
					c-0.291,0.39-0.834,0.482-1.235,0.216L113.698,17.566z"/>
				<path fill="#536567" d="M126.298,35.856c-4.233,0-7.677-3.629-7.677-8.091s3.444-8.091,7.677-8.091s7.677,3.63,7.677,8.091
					S130.531,35.856,126.298,35.856z M126.298,21.701c-3.115,0-5.649,2.72-5.649,6.064s2.534,6.063,5.649,6.063
					s5.649-2.72,5.649-6.063S129.413,21.701,126.298,21.701z"/>
				<path fill="#536567" d="M138.923,35.435c-0.56,0-1.014-0.454-1.014-1.014V12.998c0-0.56,0.454-1.014,1.014-1.014
					c0.56,0,1.014,0.454,1.014,1.014v21.423C139.937,34.981,139.483,35.435,138.923,35.435z"/>
				<path fill="#536567" d="M164.811,11.985c-0.56,0-1.014,0.454-1.014,1.014v9.85c-0.309-0.416-0.642-0.813-1.02-1.161
					c-0.561-0.495-1.183-0.909-1.845-1.222c-0.681-0.289-1.334-0.513-2.091-0.606c-0.401-0.065-0.589-0.053-1.002-0.083
					c-0.341,0.019-0.68,0.006-1.011,0.057c-1.327,0.157-2.543,0.629-3.517,1.28c-0.979,0.651-1.713,1.468-2.238,2.264
					c-0.533,0.796-0.833,1.589-1.018,2.249c-0.093,0.327-0.163,0.632-0.198,0.921c-0.021,0.141-0.04,0.271-0.057,0.39
					c-0.014,0.115-0.013,0.193-0.02,0.277c-0.018,0.322-0.028,0.494-0.028,0.494l-0.001,0.051c0,0,0.011,0.196,0.03,0.564
					c0.003,0.184,0.034,0.409,0.079,0.673c0.033,0.266,0.1,0.565,0.194,0.897c0.185,0.66,0.485,1.452,1.018,2.249
					c0.524,0.796,1.259,1.613,2.238,2.264c0.989,0.653,2.155,1.12,3.551,1.284c0.362,0.052,0.614,0.033,0.932,0.053l0.061,0.001
					l0.016-0.001l0.032-0.002l0.064-0.004l0.129-0.008l0.258-0.017c0.173-0.01,0.346-0.021,0.519-0.056
					c0.698-0.087,1.389-0.314,2.059-0.602c0.662-0.313,1.284-0.728,1.845-1.222c0.378-0.349,0.711-0.745,1.02-1.161v1.751
					c0,0.56,0.454,1.014,1.014,1.014c0.56,0,1.014-0.454,1.014-1.014V12.998C165.825,12.439,165.371,11.985,164.811,11.985z
					 M163.547,29.588c-0.175,0.586-0.409,1.15-0.725,1.66c-0.324,0.503-0.704,0.96-1.14,1.344c-0.449,0.368-0.936,0.671-1.448,0.896
					c-0.521,0.2-1.05,0.363-1.591,0.41c-0.133,0.025-0.268,0.028-0.402,0.03l-0.2,0.007l-0.1,0.004l-0.05,0.002l-0.023,0.001
					c-0.283-0.025-0.625-0.023-0.842-0.073c-0.95-0.147-1.914-0.538-2.625-1.055c-0.723-0.524-1.279-1.139-1.666-1.747
					c-0.397-0.605-0.612-1.204-0.745-1.701c-0.069-0.249-0.118-0.474-0.138-0.674c-0.032-0.198-0.055-0.367-0.054-0.506
					c-0.012-0.249-0.018-0.387-0.019-0.413c0.003-0.067,0.01-0.219,0.02-0.454c0.005-0.077,0.004-0.179,0.016-0.261
					c0.012-0.077,0.026-0.161,0.041-0.251c0.017-0.177,0.064-0.396,0.134-0.65c0.133-0.496,0.348-1.096,0.745-1.701
					c0.387-0.608,0.943-1.224,1.666-1.747c0.726-0.518,1.64-0.905,2.659-1.059c0.253-0.051,0.517-0.042,0.781-0.07
					c0.192,0.014,0.623,0.004,0.834,0.047c0.481,0.041,1.048,0.207,1.558,0.406c0.513,0.225,0.999,0.528,1.448,0.896
					c0.437,0.383,0.817,0.841,1.14,1.344c0.315,0.51,0.55,1.074,0.725,1.66c0.156,0.543,0.225,1.168,0.251,1.698v0.2
					C163.77,28.51,163.703,29.006,163.547,29.588z"/>
				<g>
					<path fill="#536567" d="M145.319,19.653c-0.56,0-1.014,0.454-1.014,1.014v13.755c0,0.56,0.454,1.014,1.014,1.014
						s1.014-0.454,1.014-1.014V20.667C146.333,20.107,145.879,19.653,145.319,19.653z"/>
					<circle fill="#536567" cx="145.319" cy="14.35" r="1.352"/>
				</g>
			</g>
			<g>
				<path fill="#536567" d="M175.547,13.704h-3.357c-0.202,0-0.365,0.164-0.365,0.365s0.164,0.365,0.365,0.365h1.313v4.296
					c0,0.202,0.164,0.365,0.365,0.365s0.365-0.164,0.365-0.365v-4.296h1.313c0.202,0,0.365-0.164,0.365-0.365
					S175.749,13.704,175.547,13.704z"/>
				<path fill="#536567" d="M182.481,19.096c-0.202,0-0.365-0.164-0.365-0.365v-3.609l-1.637,2.073
					c-0.139,0.175-0.435,0.175-0.574,0l-1.637-2.073v3.609c0,0.202-0.164,0.365-0.365,0.365s-0.365-0.164-0.365-0.365V14.07
					c0-0.156,0.098-0.294,0.246-0.345c0.147-0.052,0.31-0.003,0.407,0.119l2.003,2.536l2.003-2.536
					c0.096-0.122,0.26-0.17,0.407-0.119c0.147,0.051,0.246,0.19,0.246,0.345v4.661C182.846,18.932,182.682,19.096,182.481,19.096z"
					/>
			</g>
		</g>
		
			<use xlink:href="#New_Symbol_4"  width="75.701" height="87.281" x="-37.851" y="-43.641" transform="matrix(0.5811 0 0 -0.5811 21.9969 25.3617)" overflow="visible"/>
	</g>
</g>
<g id="Guides">
</g>
</svg>
